<?xml version="1.0" encoding="iso-8859-1"?>
<!-- Generator: Adobe Illustrator 16.0.0, SVG Export Plug-In . SVG Version: 6.00 Build 0)  -->
<!DOCTYPE svg PUBLIC "-//W3C//DTD SVG 1.1//EN" "http://www.w3.org/Graphics/SVG/1.1/DTD/svg11.dtd">
<svg version="1.1" id="Layer_1" xmlns="http://www.w3.org/2000/svg" xmlns:xlink="http://www.w3.org/1999/xlink" x="0px" y="0px"
	 width="14px" height="14px" viewBox="0 0 512 512" style="enable-background:new 0 0 512 512;" xml:space="preserve">
<g>
	<path style="fill:#FFFFFF;" d="M442.418,108.319H69.582c-23.398,0-42.367,18.967-42.367,42.367v37.1h457.57v-37.1
		C484.785,127.286,465.816,108.319,442.418,108.319z"/>
	<path style="fill:#FFFFFF;" d="M27.215,361.313c0,23.398,18.969,42.367,42.367,42.367h372.836c23.398,0,42.367-18.969,42.367-42.367V232.784H27.215
		V361.313z M341.009,276.99c8.65,0,16.621,2.897,23.006,7.769c6.386-4.871,14.355-7.769,23.007-7.769
		c20.974,0,37.978,17.003,37.978,37.978s-17.004,37.979-37.978,37.979c-8.651,0-16.621-2.898-23.007-7.769
		c-6.385,4.87-14.355,7.769-23.006,7.769c-20.975,0-37.979-17.004-37.979-37.979S320.034,276.99,341.009,276.99z M88.799,328.89
		c0-3.16,2.562-5.721,5.72-5.721H182.7c3.158,0,5.719,2.561,5.719,5.721v17.398c0,3.158-2.561,5.719-5.719,5.719H94.519
		c-3.158,0-5.72-2.561-5.72-5.719V328.89z"/>
</g>
</svg>
