<?xml version="1.0" encoding="iso-8859-1"?>
<!-- Generator: Adobe Illustrator 16.0.4, SVG Export Plug-In . SVG Version: 6.00 Build 0)  -->
<!DOCTYPE svg PUBLIC "-//W3C//DTD SVG 1.1//EN" "http://www.w3.org/Graphics/SVG/1.1/DTD/svg11.dtd">
<svg version="1.1" id="Capa_1" xmlns="http://www.w3.org/2000/svg" xmlns:xlink="http://www.w3.org/1999/xlink" x="0px" y="0px"
	 width="14px" height="14px" viewBox="0 0 28.945 29.998" style="enable-background:new 0 0 28.945 29.998;"
	 xml:space="preserve">
<path style="fill:#FFFFFF;" d="M19.718,20.643c0-3.494-2.843-6.338-6.336-6.338v-1.067c4.083-0.001,7.405,3.321,7.405,7.403L19.718,20.643z M18.939,20.641
	c-0.002-3.063-2.494-5.557-5.559-5.557l0.002,1.07c2.473,0,4.486,2.014,4.486,4.486H18.939z M13.381,16.993l0.002,1.069
	c1.421-0.002,2.578,1.156,2.578,2.578h1.068C17.031,18.63,15.394,16.994,13.381,16.993z M27.342,13.781h-2.99h-0.398
	c-0.885,0-1.602,0.717-1.602,1.604v0.174c0,0.888,0.717,1.604,1.602,1.604h2.992h0.396c0.885,0,1.604-0.72,1.604-1.604l-0.002-0.176
	C28.945,14.498,28.227,13.781,27.342,13.781z M28.945,11.383v0.178c0,0.886-0.717,1.603-1.602,1.603h-0.398h-2.594h-0.398
	c-0.883,0-1.602-0.715-1.602-1.603v-0.174c0-0.887,0.719-1.604,1.604-1.604h0.396V9.781h0.875V3.213L10.619,3.211v3.586
	c1.398-0.785,2.625-1.466,3.222-1.775c1.896-0.983,2.985,0.216,2.657,1.638c-0.252,1.098-2.114,2.307-4.077,3.823
	c-0.388,0.301-1.066,0.748-1.802,1.214v14.552h14.607v-1.086h-1.273c-0.885,0-1.602-0.719-1.602-1.602v-0.179
	c0-0.885,0.715-1.602,1.602-1.602h0.398h2.594h0.396c0.885,0,1.602,0.715,1.604,1.602l-0.002,0.175
	c0.002,0.887-0.717,1.604-1.604,1.604h-0.395v0.002h-0.31v2.811c0,1.113-0.912,2.025-2.026,2.025H11.236
	c-1.115,0-2.027-0.912-2.027-2.025V25.67H6.774c0,0-3.598-0.014-5.549-2.962c-0.021-0.03-0.041-0.058-0.062-0.088
	c-0.082-0.129-0.156-0.267-0.231-0.405c-0.063-0.117-0.125-0.242-0.185-0.369c-0.057-0.121-0.112-0.238-0.164-0.367
	c-0.103-0.26-0.192-0.532-0.271-0.824c-0.022-0.086-0.038-0.18-0.06-0.27c-0.059-0.252-0.107-0.517-0.146-0.794
	c-0.015-0.106-0.029-0.213-0.041-0.323C0.027,18.891,0,18.499,0,18.077c0-4.736,2.213-6.742,3.723-7.363
	c0.006-0.004,2.788-1.597,5.486-3.122V2.027C9.209,0.912,10.121,0,11.236,0h13.373c1.114,0,2.026,0.912,2.026,2.027v7.756h0.707
	C28.229,9.781,28.945,10.5,28.945,11.383z M16.91,27.973c0,0.562,0.453,1.015,1.013,1.015c0.562,0,1.014-0.453,1.014-1.015
	c0-0.561-0.452-1.014-1.014-1.014C17.363,26.959,16.91,27.414,16.91,27.973z M20.307,1.705c0-0.137-0.109-0.246-0.244-0.246h-4.279
	c-0.135,0-0.246,0.109-0.246,0.246c0,0.135,0.111,0.244,0.246,0.244h4.279C20.197,1.949,20.307,1.84,20.307,1.705z M27.342,17.781
	h-0.396h-2.992c-0.883,0-1.602,0.719-1.602,1.604v0.176c0,0.886,0.717,1.603,1.602,1.603h0.398h2.594h0.396
	c0.887,0,1.602-0.717,1.604-1.603l-0.002-0.176C28.943,18.5,28.229,17.781,27.342,17.781z"/>
<g>
</g>
<g>
</g>
<g>
</g>
<g>
</g>
<g>
</g>
<g>
</g>
<g>
</g>
<g>
</g>
<g>
</g>
<g>
</g>
<g>
</g>
<g>
</g>
<g>
</g>
<g>
</g>
<g>
</g>
</svg>
