<?xml version="1.0" encoding="utf-8"?>
<!-- Generator: Adobe Illustrator 15.0.0, SVG Export Plug-In . SVG Version: 6.00 Build 0)  -->
<!DOCTYPE svg PUBLIC "-//W3C//DTD SVG 1.1//EN" "http://www.w3.org/Graphics/SVG/1.1/DTD/svg11.dtd">
<svg version="1.1" id="Layer_1" xmlns="http://www.w3.org/2000/svg" xmlns:xlink="http://www.w3.org/1999/xlink" x="0px" y="0px"
	 width="14px" height="14px" viewBox="0 0 26 26" enable-background="new 0 0 26 26" xml:space="preserve">
<rect fill="none" width="26" height="26"/>
<g>
	<ellipse style="fill:#FFFFFF;" cx="11" cy="5" rx="10.813" ry="4.813"/>
	<path style="fill:#FFFFFF;" fill="#000000" d="M13.504,22.676c-0.758-0.193-1.324-0.811-1.467-1.566c-0.342,0.015-0.688,0.023-1.037,0.023
		c-5.973,0-10.813-2.153-10.813-4.813c0,1.11,0,1.852,0,3.68c0,2.659,4.84,4.813,10.813,4.813c0.859,0,1.691-0.049,2.493-0.134
		C13.145,24.062,13.129,23.3,13.504,22.676z"/>
	<path style="fill:#FFFFFF;" fill="#000000" d="M11,19.813c0.338,0,0.67-0.009,1-0.022v-0.552c0-0.924,0.631-1.719,1.514-1.939
		c-0.232-0.393-0.317-0.84-0.262-1.271c-0.727,0.068-1.479,0.105-2.252,0.105c-5.973,0-10.813-2.153-10.813-4.813
		c0,1.11,0,1.852,0,3.68C0.188,17.659,5.027,19.813,11,19.813z"/>
	<path style="fill:#FFFFFF;" fill="#000000" d="M11,14.813c1.068,0,2.098-0.071,3.073-0.2l0.808-0.808c0.387-0.388,0.899-0.586,1.415-0.586
		c0.347,0,0.695,0.09,1.008,0.273C17.532,12.621,18.322,12,19.238,12h1.5c0.027,0,0.054,0.006,0.08,0.007
		c0.633-0.611,0.994-1.29,0.994-2.007c0-0.977,0-1.995,0-3.68c0,2.659-4.84,4.813-10.813,4.813S0.188,8.979,0.188,6.32
		c0,1.11,0,1.852,0,3.68C0.188,12.659,5.027,14.813,11,14.813z"/>
</g>
<g>
	<path style="fill:#FFFFFF;" fill="#000000" d="M26,20.738v-1.5l-1.785-0.292c-0.105-0.422-0.271-0.819-0.49-1.185l1.04-1.482l-1.061-1.061l-1.464,1.053
		c-0.365-0.221-0.765-0.39-1.19-0.495L20.738,14h-1.5l-0.289,1.771c-0.426,0.104-0.828,0.27-1.194,0.489l-1.46-1.042l-1.061,1.061
		l1.027,1.468c-0.223,0.368-0.392,0.769-0.498,1.198L14,19.238v1.5l1.762,0.312c0.105,0.429,0.274,0.831,0.498,1.199l-1.041,1.455
		l1.061,1.062l1.47-1.029c0.368,0.221,0.769,0.387,1.194,0.492L19.238,26h1.5l0.315-1.776c0.423-0.106,0.823-0.276,1.188-0.497
		l1.481,1.039l1.06-1.062l-1.057-1.467c0.219-0.365,0.385-0.763,0.489-1.187L26,20.738z M20,22.092
		c-1.154,0-2.092-0.936-2.092-2.092c0-1.154,0.938-2.092,2.092-2.092c1.156,0,2.092,0.938,2.092,2.092
		C22.092,21.156,21.156,22.092,20,22.092z"/>
</g>
</svg>
